<svg xmlns="http://www.w3.org/2000/svg" width="355.5" height="42.688"><defs><style>.cls-1{fill-rule:evenodd}</style></defs><path id="Фрай_без_штанов_и_Бендер" data-name="Фрай, без штанов и Бендер" class="cls-1" d="M45.346 34.322a6.729 6.729 0 0 0 1.7-4.705 6.726 6.726 0 0 0-1.705-4.723q-1.705-1.863-5.795-2.016v-1.7h-3.4v1.7q-3.961.152-5.731 1.951a6.515 6.515 0 0 0-1.77 4.775 6.769 6.769 0 0 0 1.693 4.7q1.693 1.881 5.807 2.033v2h3.4v-2q4.101-.145 5.801-2.015zm-5.8-8.549q4.137 0 4.137 3.727a4.95 4.95 0 0 1-.41 2.262 2.874 2.874 0 0 1-1.389 1.23 5.486 5.486 0 0 1-2.338.457v-7.676zm-7.536 3.938a4.037 4.037 0 0 1 .973-2.959 4.329 4.329 0 0 1 3.164-.979v7.676q-4.137 0-4.137-3.738zm17.707 13.371h3.293v-6.27a6.3 6.3 0 0 0 1.764 1.406 4.2 4.2 0 0 0 1.869.41 4.746 4.746 0 0 0 3.691-1.728 7.087 7.087 0 0 0 1.523-4.846 6.878 6.878 0 0 0-1.512-4.734 4.745 4.745 0 0 0-3.68-1.7 4.459 4.459 0 0 0-2.262.586 4.6 4.6 0 0 0-1.617 1.523V25.9h-3.07v17.18zm4.055-13.928a2.526 2.526 0 0 1 2-.932 2.429 2.429 0 0 1 1.945.949 4.5 4.5 0 0 1 .785 2.906 4.739 4.739 0 0 1-.762 3.018 2.379 2.379 0 0 1-1.91.92 2.545 2.545 0 0 1-2.027-1 4.793 4.793 0 0 1-.832-3.1 4.146 4.146 0 0 1 .801-2.761zm13.957-.668a2.358 2.358 0 0 1 1.371-.346 2.809 2.809 0 0 1 1.77.4 1.705 1.705 0 0 1 .469 1.354v.328a17.929 17.929 0 0 1-3.2.809 11.039 11.039 0 0 0-2.619.768 3.292 3.292 0 0 0-1.412 1.266 3.538 3.538 0 0 0-.5 1.881 3.467 3.467 0 0 0 1.107 2.637 4.24 4.24 0 0 0 3.029 1.043 5.171 5.171 0 0 0 2.051-.41 5.937 5.937 0 0 0 1.8-1.23q.035.094.117.387.187.645.316.973h3.258a7.06 7.06 0 0 1-.592-1.67 13.339 13.339 0 0 1-.158-2.42l.035-3.844a6.79 6.79 0 0 0-.439-2.947 3.274 3.274 0 0 0-1.518-1.324 7.881 7.881 0 0 0-3.281-.522 6.347 6.347 0 0 0-3.656.867 4.654 4.654 0 0 0-1.734 2.672l2.989.542a2.4 2.4 0 0 1 .797-1.214zm3.609 4.541a6.5 6.5 0 0 1-.129 1.606 2.063 2.063 0 0 1-.785 1.09 2.851 2.851 0 0 1-1.7.586 1.8 1.8 0 0 1-1.312-.5 1.614 1.614 0 0 1-.516-1.2 1.373 1.373 0 0 1 .644-1.16 6.039 6.039 0 0 1 1.793-.574 20.564 20.564 0 0 0 2-.5v.656zm6.4 5.32H80.9l5.133-7.957v7.957H89.2V25.9h-3.237L80.9 33.719V25.9h-3.164v12.448zm7.3-16.236a2.722 2.722 0 0 1-2.93 0 1.805 1.805 0 0 1-.586-1.26h-1.606a3.716 3.716 0 0 0 1.119 2.5 4 4 0 0 0 5.074 0 3.717 3.717 0 0 0 1.119-2.5h-1.605a1.807 1.807 0 0 1-.586 1.26zm7.452 16.237h1.594a2.716 2.716 0 0 1-.445 1.57 2.776 2.776 0 0 1-1.418.9l.645 1.359a4.8 4.8 0 0 0 1.74-1.031 3.371 3.371 0 0 0 .932-1.482 8.209 8.209 0 0 0 .246-2.256v-2.353H92.49v3.293zm21.832-17.109h-1.664q-4.1 0-5.748 1.957t-1.646 6.434a16.394 16.394 0 0 0 .644 5.455 5.276 5.276 0 0 0 2.145 2.6 6.368 6.368 0 0 0 3.48.949 6.156 6.156 0 0 0 4.67-1.875 6.278 6.278 0 0 0 1.787-4.488 6.425 6.425 0 0 0-1.7-4.412 5.619 5.619 0 0 0-6.9-1.225 5.033 5.033 0 0 0-1.881 2.051 6.369 6.369 0 0 1 .65-3.211 3.106 3.106 0 0 1 1.611-1.342 7.865 7.865 0 0 1 2.555-.346h.422q.317.012.633.012 2.647 0 3.322-.768a3.744 3.744 0 0 0 .779-2.256h-2.238a.934.934 0 0 1-.926.469zm-4.84 8.309a2.723 2.723 0 0 1 4.225.018 3.977 3.977 0 0 1 .861 2.666 4.006 4.006 0 0 1-.849 2.642 2.7 2.7 0 0 1-2.174 1.025 2.639 2.639 0 0 1-2.08-.99 3.99 3.99 0 0 1-.85-2.689 3.927 3.927 0 0 1 .867-2.673zm17.661 6.2a2.019 2.019 0 0 1-1.3.422 2.493 2.493 0 0 1-1.9-.815 3.333 3.333 0 0 1-.8-2.279h8.25q.071-3.785-1.535-5.619a5.523 5.523 0 0 0-4.382-1.834 5.326 5.326 0 0 0-4.09 1.752 6.873 6.873 0 0 0-1.618 4.846A7.128 7.128 0 0 0 121 36.508a5.569 5.569 0 0 0 4.805 2.121 5.871 5.871 0 0 0 3.416-.943 5.382 5.382 0 0 0 2-2.748l-3.282-.551a2.6 2.6 0 0 1-.796 1.359zm-3.938-4.687a3.041 3.041 0 0 1 .691-2.133 2.289 2.289 0 0 1 1.782-.785 2.266 2.266 0 0 1 1.711.744 3.172 3.172 0 0 1 .738 2.174h-4.922zm14.789 2.18a2.549 2.549 0 0 1 1.518.416 1.332 1.332 0 0 1 .58 1.143 1.476 1.476 0 0 1-.557 1.143 2.172 2.172 0 0 1-1.482.486 2.493 2.493 0 0 1-2.4-1.828l-3.011.551q1 3.481 5.449 3.48A6.3 6.3 0 0 0 142 37.58a3.088 3.088 0 0 0 1.359-2.5 2.732 2.732 0 0 0-.685-1.9 4.182 4.182 0 0 0-2.069-1.137 4.965 4.965 0 0 0 1.682-1.189 2.431 2.431 0 0 0 .533-1.611 3.235 3.235 0 0 0-1.236-2.59 5.3 5.3 0 0 0-3.486-1.031 6.063 6.063 0 0 0-3.153.82 3.851 3.851 0 0 0-1.8 2.461l2.789.6a2.542 2.542 0 0 1 .937-1.336 2.407 2.407 0 0 1 1.172-.281 1.6 1.6 0 0 1 1.283.5 1.632 1.632 0 0 1 .428 1.084 1.657 1.657 0 0 1-1.078 1.518 4.933 4.933 0 0 1-1.242.111v2.145h.562zm14.6 5.109h16.722V25.9h-3.035v9.785h-3.808V25.9h-3.036v9.785h-3.82V25.9H152.6v12.448zm18.609-9.785h3.984v9.785h3.293v-9.787h3.985V25.9h-11.26v2.66zm16.488-.076a2.359 2.359 0 0 1 1.371-.346 2.81 2.81 0 0 1 1.77.4 1.707 1.707 0 0 1 .468 1.357v.328a17.931 17.931 0 0 1-3.2.809 11.054 11.054 0 0 0-2.62.768 3.3 3.3 0 0 0-1.412 1.266 3.538 3.538 0 0 0-.5 1.881 3.468 3.468 0 0 0 1.108 2.637 4.239 4.239 0 0 0 3.029 1.043 5.172 5.172 0 0 0 2.051-.41 5.951 5.951 0 0 0 1.805-1.23q.035.094.117.387.188.645.316.973h3.258a7.088 7.088 0 0 1-.592-1.67 13.39 13.39 0 0 1-.158-2.42l.035-3.844a6.792 6.792 0 0 0-.439-2.947 3.274 3.274 0 0 0-1.518-1.324 7.879 7.879 0 0 0-3.281-.522 6.346 6.346 0 0 0-3.656.867 4.653 4.653 0 0 0-1.735 2.672l2.992.536a2.41 2.41 0 0 1 .793-1.214zm3.61 4.541a6.5 6.5 0 0 1-.129 1.606 2.064 2.064 0 0 1-.785 1.09 2.853 2.853 0 0 1-1.7.586 1.8 1.8 0 0 1-1.312-.5 1.614 1.614 0 0 1-.516-1.2 1.373 1.373 0 0 1 .645-1.16 6.037 6.037 0 0 1 1.793-.574 20.576 20.576 0 0 0 2-.5v.656zm6.351 5.32h3.293v-5.229h4.711v5.227h3.305V25.9h-3.305v4.559h-4.711V25.9h-3.293v12.448zm14.672-2.76a5.3 5.3 0 0 0 2.362 2.268 7.223 7.223 0 0 0 3.263.773 6.159 6.159 0 0 0 4.588-1.857 6.411 6.411 0 0 0 1.822-4.682 6.336 6.336 0 0 0-1.8-4.635 6.217 6.217 0 0 0-4.629-1.834 6.8 6.8 0 0 0-3.311.809 5.552 5.552 0 0 0-2.291 2.344 6.733 6.733 0 0 0-.808 3.176 7.556 7.556 0 0 0 .806 3.636zm3.445-6.3a2.874 2.874 0 0 1 4.331 0 4.109 4.109 0 0 1 .873 2.812 4.185 4.185 0 0 1-.873 2.859 2.874 2.874 0 0 1-4.331 0 4.127 4.127 0 0 1-.878-2.836 4.128 4.128 0 0 1 .88-2.836zm11.2 9.059h7.839a4.751 4.751 0 0 0 3.153-.908 2.955 2.955 0 0 0 1.066-2.361 3.151 3.151 0 0 0-.633-1.9 3.22 3.22 0 0 0-1.915-1.18 2.923 2.923 0 0 0 2.121-2.848 2.829 2.829 0 0 0-1.1-2.437 5.593 5.593 0 0 0-3.316-.809h-7.207v12.442zm3.316-10.336h2.121a5.371 5.371 0 0 1 2.268.334 1.164 1.164 0 0 1 .638 1.119 1.3 1.3 0 0 1-.685 1.219 4.755 4.755 0 0 1-2.221.387h-2.121v-3.06zm0 5.062h1.688a7.838 7.838 0 0 1 2.871.346 1.458 1.458 0 0 1 .093 2.479 4.622 4.622 0 0 1-2.05.34h-2.6v-3.166zm17.988 5.274h3.164l5.133-7.957v7.957h3.164V25.9H256.5l-5.063 7.817V25.9h-3.164v12.448zm21.6 0h8.109a9.272 9.272 0 0 0 3.287-.457 4.728 4.728 0 0 0 2.057-1.7 4.943 4.943 0 0 0 .9-2.988 4.994 4.994 0 0 0-.9-2.965 4.607 4.607 0 0 0-2.162-1.734 9.279 9.279 0 0 0-3.188-.469h-4.64v-3.985h9.375v-2.883h-12.834v17.18zm3.469-7.43h3.527a5.656 5.656 0 0 1 2.9.545 1.913 1.913 0 0 1 .85 1.74 2.041 2.041 0 0 1-.486 1.383 2.164 2.164 0 0 1-1.143.721 11.086 11.086 0 0 1-2.273.158h-3.375v-4.548zm20.1 4.828a2.014 2.014 0 0 1-1.3.422 2.493 2.493 0 0 1-1.9-.815 3.333 3.333 0 0 1-.8-2.279h8.25q.071-3.785-1.535-5.619a5.524 5.524 0 0 0-4.383-1.834 5.329 5.329 0 0 0-4.09 1.752 6.873 6.873 0 0 0-1.617 4.846 7.121 7.121 0 0 0 1.231 4.289 5.567 5.567 0 0 0 4.8 2.121 5.869 5.869 0 0 0 3.416-.943 5.377 5.377 0 0 0 2-2.748l-3.281-.551a2.6 2.6 0 0 1-.79 1.358zm-3.937-4.687a3.041 3.041 0 0 1 .691-2.133 2.289 2.289 0 0 1 1.782-.785 2.264 2.264 0 0 1 1.71.744 3.172 3.172 0 0 1 .739 2.174h-4.922zm10.746 7.289h3.293v-5.228h4.711v5.227h3.305V25.9h-3.305v4.559h-4.711V25.9h-3.293v12.448zm24.914 3.281h2.684v-5.978h-1.336V25.9h-10.042a31.56 31.56 0 0 1-.657 6.82 7.309 7.309 0 0 1-1.394 2.93h-1.348v5.977h2.672v-3.279h9.422v3.281zm-7.523-5.977q1.442-1.887 1.64-7.043h3.985l-.012 7.043h-5.613zm18.878.094a2.014 2.014 0 0 1-1.3.422 2.493 2.493 0 0 1-1.9-.815 3.333 3.333 0 0 1-.8-2.279h8.25q.071-3.785-1.535-5.619a5.524 5.524 0 0 0-4.383-1.834 5.325 5.325 0 0 0-4.089 1.752 6.868 6.868 0 0 0-1.618 4.846 7.128 7.128 0 0 0 1.231 4.289 5.567 5.567 0 0 0 4.805 2.121 5.871 5.871 0 0 0 3.416-.943 5.382 5.382 0 0 0 2-2.748l-3.282-.551a2.6 2.6 0 0 1-.794 1.358zm-3.937-4.687a3.041 3.041 0 0 1 .691-2.133 2.377 2.377 0 0 1 3.493-.041 3.177 3.177 0 0 1 .738 2.174h-4.922zm10.781 12.023h3.293v-6.27a6.292 6.292 0 0 0 1.764 1.406 4.192 4.192 0 0 0 1.869.41 4.745 4.745 0 0 0 3.691-1.729 7.084 7.084 0 0 0 1.524-4.846 6.877 6.877 0 0 0-1.512-4.734 4.745 4.745 0 0 0-3.68-1.7 4.455 4.455 0 0 0-2.261.586 4.589 4.589 0 0 0-1.617 1.523V25.9h-3.071v17.18zm4.055-13.928a2.526 2.526 0 0 1 2-.932 2.428 2.428 0 0 1 1.945.949 4.5 4.5 0 0 1 .785 2.906 4.745 4.745 0 0 1-.761 3.018 2.38 2.38 0 0 1-1.911.92 2.546 2.546 0 0 1-2.027-1 4.792 4.792 0 0 1-.832-3.1 4.148 4.148 0 0 1 .802-2.762z" transform="translate(0 -.313)"/><path id="Издательство" d="M30.358 12.469h1.61l6.483-9.612v9.612h1.461V.3h-1.618l-6.475 9.637V.3h-1.461v12.169zm14.634-3.993a5.84 5.84 0 0 1 1.295.1 1.346 1.346 0 0 1 .672.477 1.435 1.435 0 0 1-.187 1.988 1.873 1.873 0 0 1-1.258.428 2.1 2.1 0 0 1-1.34-.469 2.238 2.238 0 0 1-.774-1.312l-1.4.3q.481 2.681 3.495 2.681a3.6 3.6 0 0 0 2.416-.739 2.414 2.414 0 0 0 .858-1.93 2.349 2.349 0 0 0-1.328-2.216 1.941 1.941 0 0 0 1.046-1.718 2.471 2.471 0 0 0-.8-1.843 3.386 3.386 0 0 0-5.416 1.71l1.419.232a1.837 1.837 0 0 1 1.768-1.486 1.5 1.5 0 0 1 1.042.361 1.235 1.235 0 0 1 .4.967 1.176 1.176 0 0 1-.307.83 1.21 1.21 0 0 1-.652.4 8.516 8.516 0 0 1-1.291.075v1.17q.266-.008.34-.008zm5.138 2.764h-.789v3.727h1.229v-2.5h6.939v2.5h1.229V11.24h-.955V3.653h-6.142q.066 5.447-1.511 7.587zm6.17-6.35v6.35h-4.74a14.54 14.54 0 0 0 1.328-6.35H56.3zm10.475 7.579h1.561a3.322 3.322 0 0 1-.378-1.058 21.128 21.128 0 0 1-.1-2.635V6.783a8.414 8.414 0 0 0-.073-1.383 2.351 2.351 0 0 0-.465-1.017 2.419 2.419 0 0 0-1.038-.668 5.3 5.3 0 0 0-1.835-.266 5.887 5.887 0 0 0-2 .311 2.874 2.874 0 0 0-1.32.888 3.62 3.62 0 0 0-.656 1.515l1.461.2a2.256 2.256 0 0 1 .743-1.307 2.639 2.639 0 0 1 1.556-.369 2.5 2.5 0 0 1 1.7.506 1.65 1.65 0 0 1 .423 1.287q0 .083-.008.39a13.654 13.654 0 0 1-2.665.515 10.69 10.69 0 0 0-1.328.224 3.631 3.631 0 0 0-1.075.49 2.438 2.438 0 0 0-.772.859 2.412 2.412 0 0 0-.295 1.183A2.343 2.343 0 0 0 61 11.958a3.2 3.2 0 0 0 2.233.71 4.617 4.617 0 0 0 1.648-.291 5.56 5.56 0 0 0 1.6-1 3.168 3.168 0 0 0 .3 1.088zm-.426-3.877a3.61 3.61 0 0 1-.241 1.494 2.327 2.327 0 0 1-.988 1.034 3.082 3.082 0 0 1-1.536.378 1.946 1.946 0 0 1-1.324-.4 1.321 1.321 0 0 1-.245-1.706 1.3 1.3 0 0 1 .589-.486 5.647 5.647 0 0 1 1.3-.3 10.957 10.957 0 0 0 2.44-.564v.55zm2.988-3.7h2.839v7.579h1.486V4.89H76.5V3.653h-7.163V4.89zm13.854 6.118a2.286 2.286 0 0 1-1.4.432 2.446 2.446 0 0 1-1.843-.772 3.387 3.387 0 0 1-.822-2.225H85.7q.008-.266.008-.4a4.783 4.783 0 0 0-1.121-3.387 3.769 3.769 0 0 0-2.889-1.2 3.878 3.878 0 0 0-2.972 1.229 4.871 4.871 0 0 0-1.145 3.453 4.654 4.654 0 0 0 1.133 3.341 4.584 4.584 0 0 0 5.591.444 3.767 3.767 0 0 0 1.353-2.1l-1.546-.195a2.866 2.866 0 0 1-.921 1.378zm-3.208-5.638a2.373 2.373 0 0 1 1.731-.689 2.29 2.29 0 0 1 1.851.863 2.987 2.987 0 0 1 .564 1.668h-4.923a2.727 2.727 0 0 1 .777-1.842zm8.056 4.092a7.211 7.211 0 0 1-.067 1.353.489.489 0 0 1-.266.3 1.659 1.659 0 0 1-.664.1h-.656v1.243q.681.066 1.2.066a2 2 0 0 0 1.295-.365 1.471 1.471 0 0 0 .548-.855 12.753 12.753 0 0 0 .1-2.025V4.89h3.959v7.579h1.486V3.653h-6.936v5.811zm9.5 3h3.735a3.807 3.807 0 0 0 2.669-.784 2.5 2.5 0 0 0 .837-1.88 2.3 2.3 0 0 0-1-1.98 4.839 4.839 0 0 0-2.851-.718h-1.893V3.653h-1.494v8.815zm1.494-4.134h1.767a2.98 2.98 0 0 1 1.984.448 1.406 1.406 0 0 1 .448 1.021 1.167 1.167 0 0 1-.606 1.087 4.306 4.306 0 0 1-2.025.349h-1.565v-2.9zm12.736 2.57a2.092 2.092 0 0 1-1.469.54 2.214 2.214 0 0 1-1.776-.805 3.97 3.97 0 0 1-.681-2.582 3.839 3.839 0 0 1 .706-2.561 2.317 2.317 0 0 1 1.834-.809 1.9 1.9 0 0 1 1.274.448 2.413 2.413 0 0 1 .735 1.336l1.453-.224a3.332 3.332 0 0 0-1.171-2.063 3.659 3.659 0 0 0-2.349-.726 4.271 4.271 0 0 0-2.1.535 3.3 3.3 0 0 0-1.44 1.606 6.127 6.127 0 0 0-.474 2.5 4.8 4.8 0 0 0 1.1 3.391 3.785 3.785 0 0 0 2.91 1.183 3.589 3.589 0 0 0 2.436-.859 3.814 3.814 0 0 0 1.233-2.378l-1.47-.191a2.676 2.676 0 0 1-.751 1.659zm3.03-6.01h2.839v7.579h1.485V4.89h2.839V3.653H114.8V4.89zm8.939 7.579h3.976a3.918 3.918 0 0 0 2.366-.606 2.381 2.381 0 0 0 .9-1.859 2.241 2.241 0 0 0-.411-1.349 2.062 2.062 0 0 0-1.034-.776 2.134 2.134 0 0 0 .785-.784 2.225 2.225 0 0 0 .261-1.1 2.122 2.122 0 0 0-.444-1.353 2.28 2.28 0 0 0-1.062-.776 6.253 6.253 0 0 0-1.889-.212h-3.445v8.815zm1.5-7.579h1.643a3.738 3.738 0 0 1 1.689.274 1.015 1.015 0 0 1 .494.971 1.029 1.029 0 0 1-.282.726 1.37 1.37 0 0 1-.639.4 5.7 5.7 0 0 1-1.312.1h-1.593V4.89zm0 3.7h1.809a7.386 7.386 0 0 1 1.411.1 1.188 1.188 0 0 1 .714.457 1.269 1.269 0 0 1 .274.784 1.155 1.155 0 0 1-.5 1.017 3.588 3.588 0 0 1-1.743.295h-1.967V8.592zm8.263 2.889a3.96 3.96 0 0 0 2.992 1.187 4.325 4.325 0 0 0 2.129-.54 3.613 3.613 0 0 0 1.486-1.515 5.835 5.835 0 0 0 .511-2.677 4.533 4.533 0 0 0-1.154-3.291 3.957 3.957 0 0 0-2.972-1.191 4.1 4.1 0 0 0-2.772.979 4.543 4.543 0 0 0-1.362 3.627 4.741 4.741 0 0 0 1.141 3.423zm1.133-5.952a2.463 2.463 0 0 1 3.706 0 3.644 3.644 0 0 1 .743 2.478 3.841 3.841 0 0 1-.739 2.582 2.459 2.459 0 0 1-3.71 0 3.752 3.752 0 0 1-.739-2.536 3.736 3.736 0 0 1 .734-2.522z" transform="translate(0 -.313)" fill="#4d4d4d" fill-rule="evenodd"/><path id="sign_b_w" data-name="sign b&amp;w" class="cls-1" d="M22 12h-7a5 5 0 0 0-5 5v6a5 5 0 0 0 5 5h7v10H12A12 12 0 0 1 0 26V14A12 12 0 0 1 12 2h10v10z" transform="translate(0 -.313)"/></svg>